<svg width="30" height="30" viewBox="0 0 30 30" fill="none" xmlns="http://www.w3.org/2000/svg">
<mask id="mask0_2660_12688" style="mask-type:alpha" maskUnits="userSpaceOnUse" x="0" y="0" width="30" height="30">
<rect width="30" height="30" fill="#D9D9D9"/>
</mask>
<g mask="url(#mask0_2660_12688)">
<path d="M15 1C22.732 1.00003 29 7.26803 29 15C29 22.7319 22.7319 29 15 29C7.26804 29 1.00004 22.732 1 15C1 7.26801 7.26801 1 15 1ZM15 2.5C8.09644 2.5 2.5 8.09644 2.5 15C2.50004 21.9035 8.09647 27.5 15 27.5C21.9035 27.5 27.5 21.9035 27.5 15C27.5 8.09646 21.9035 2.50003 15 2.5ZM14.96 22.5391C15.814 22.4718 16.4598 23.0133 16.9248 23.3975C17.4527 23.8337 17.8114 24.1226 18.2344 24.1514C18.5811 24.1503 18.8551 23.9343 19.29 23.5225C19.67 23.1626 20.2132 22.6056 20.998 22.5391C21.2731 22.5159 21.5147 22.7201 21.5381 22.9951C21.5613 23.2702 21.3571 23.5118 21.082 23.5352C20.7117 23.5666 20.4272 23.8233 19.9775 24.249C19.587 24.6189 19.0299 25.1589 18.2168 25.1523C18.2092 25.1523 18.201 25.1528 18.1934 25.1523C17.3693 25.1073 16.7408 24.542 16.2881 24.168C15.7668 23.7373 15.4282 23.5056 15.0391 23.5361L15.0381 23.5352C14.667 23.5681 14.379 23.8235 13.9316 24.2432C13.541 24.6096 12.9869 25.1453 12.1846 25.1523C12.1714 25.1525 12.1577 25.1523 12.1445 25.1514C11.3321 25.0938 10.7066 24.5366 10.2529 24.166C9.73282 23.7412 9.38842 23.5082 8.99414 23.5361C8.71881 23.5555 8.47954 23.3476 8.45996 23.0723C8.44073 22.797 8.64854 22.5586 8.92383 22.5391C9.77264 22.479 10.4173 23.0089 10.8857 23.3916C11.4109 23.8205 11.7711 24.1108 12.1914 24.1504C12.5364 24.141 12.8132 23.9217 13.248 23.5137C13.6314 23.154 14.1748 22.6055 14.957 22.5391H14.96ZM21.0107 19.2793C21.871 19.2122 22.5173 19.7605 22.9805 20.1465C23.5132 20.5904 23.8685 20.8771 24.291 20.8936C24.5665 20.9047 24.781 21.1366 24.7705 21.4121C24.7595 21.6876 24.5274 21.903 24.252 21.8926C23.4217 21.8601 22.7918 21.2899 22.3408 20.9141C21.8203 20.4803 21.4815 20.2458 21.0889 20.2764L21.0879 20.2754C20.7196 20.3084 20.4362 20.5651 19.9883 20.9893C19.5977 21.3591 19.0399 21.8992 18.2266 21.8926C18.219 21.8925 18.2107 21.893 18.2031 21.8926C17.3793 21.8475 16.7505 21.2823 16.2979 20.9082C15.7766 20.4775 15.438 20.2458 15.0488 20.2764L15.0479 20.2754C14.6769 20.3084 14.3896 20.5638 13.9424 20.9834C13.5518 21.3499 12.9969 21.8856 12.1943 21.8926C12.1812 21.8927 12.1674 21.8925 12.1543 21.8916C11.3423 21.8339 10.7172 21.2768 10.2637 20.9062C9.74349 20.4814 9.39817 20.2485 9.00391 20.2764C8.57664 20.3068 8.22771 20.5992 7.69629 21.04C7.22703 21.4293 6.58363 21.9576 5.70996 21.8916C5.435 21.8706 5.22858 21.6304 5.24902 21.3555C5.26988 21.0801 5.51078 20.8737 5.78613 20.8945C6.20422 20.9259 6.55074 20.691 7.05762 20.2705C7.50254 19.9014 8.11778 19.3372 8.93359 19.2793C9.7823 19.2193 10.427 19.7492 10.8955 20.1318C11.4207 20.5609 11.7816 20.8513 12.2021 20.8906C12.5467 20.8809 12.8234 20.6615 13.2578 20.2539C13.6412 19.8942 14.1853 19.3456 14.9678 19.2793H14.9707C15.8245 19.2123 16.4697 19.7536 16.9346 20.1377C17.4623 20.5737 17.8213 20.8627 18.2441 20.8916C18.5908 20.8905 18.865 20.6744 19.2998 20.2627C19.6798 19.9029 20.2231 19.3458 21.0078 19.2793H21.0107ZM14.6182 15.5674C14.6182 15.9781 14.6279 16.2329 14.6572 16.3604C14.6964 16.5562 14.7945 16.7136 14.9512 16.8311C15.1077 16.9483 15.3132 17.0068 15.5771 17.0068C15.8414 17.0068 16.0573 16.9484 16.1943 16.8408C16.3313 16.7332 16.41 16.596 16.4395 16.4297C16.4688 16.2731 16.4785 15.9987 16.4785 15.627V13.0127H17.4375V15.499C17.4375 16.0666 17.4083 16.4681 17.3594 16.7031C17.3104 16.9381 17.2123 17.1343 17.0752 17.3008C16.9382 17.4671 16.7524 17.5945 16.5176 17.6826C16.2827 17.7805 15.9792 17.8291 15.6074 17.8291C15.1572 17.8291 14.8141 17.7805 14.5791 17.6729C14.3441 17.5652 14.1575 17.4282 14.0303 17.2617C13.903 17.0953 13.8058 16.9184 13.7666 16.7324C13.7079 16.4583 13.6689 16.0568 13.6689 15.5283V13.0029H14.6182V15.5674ZM8.50879 13.8057H6.21777V14.9219H8.19531V15.7246H6.21777V17.7314H5.26855V13.0029H8.50879V13.8057ZM10.4375 16.9385H12.8164V17.7314H9.48828V13.042H10.4375V16.9385ZM19.5234 17.7314H18.5635V13.0029H19.5234V17.7314ZM20.5898 13.0029H22.333C22.7245 13.0029 23.0278 13.0321 23.2334 13.0908C23.5075 13.1691 23.7524 13.3159 23.9482 13.5215C24.144 13.7271 24.3005 13.9817 24.3984 14.2852C24.4963 14.5887 24.5547 14.9608 24.5547 15.4014C24.5547 15.793 24.5061 16.1263 24.4082 16.4102C24.2907 16.7526 24.1245 17.0367 23.8994 17.2422C23.733 17.4086 23.5075 17.5261 23.2334 17.624C23.0181 17.6925 22.7439 17.7217 22.3916 17.7217H20.5898V13.0029ZM21.5498 13.8057V16.9385H22.2646C22.5287 16.9385 22.7244 16.919 22.8418 16.8896C22.9984 16.8505 23.1257 16.7815 23.2236 16.6934C23.3215 16.6052 23.41 16.4487 23.4688 16.2334C23.5372 16.0181 23.5664 15.7342 23.5664 15.3721C23.5664 15.01 23.5372 14.7261 23.4688 14.5303C23.4003 14.3346 23.3117 14.178 23.1943 14.0703C23.0769 13.9626 22.9301 13.8839 22.7539 13.8447C22.6169 13.8154 22.3622 13.7959 21.9707 13.7959H21.54L21.5498 13.8057ZM24.2891 8.1084C24.5644 8.12925 24.7708 8.36924 24.75 8.64453C24.7291 8.91987 24.4892 9.1263 24.2139 9.10547C23.7956 9.07382 23.4494 9.30887 22.9424 9.72949C22.4975 10.0985 21.882 10.6627 21.0664 10.7207C20.2175 10.7808 19.572 10.2509 19.1035 9.86816C18.5762 9.43743 18.2156 9.14503 17.793 9.10742C17.4504 9.1189 17.1748 9.34022 16.7422 9.74609C16.3588 10.1058 15.8147 10.6544 15.0322 10.7207H15.0293C14.1752 10.7879 13.5294 10.2465 13.0645 9.8623C12.5344 9.42432 12.1753 9.13416 11.75 9.10742C11.4057 9.1107 11.132 9.32751 10.6992 9.7373C10.3193 10.0971 9.77664 10.654 8.99219 10.7207H8.98828C8.12803 10.7878 7.48176 10.2395 7.01855 9.85352C6.48586 9.4096 6.1315 9.12295 5.70898 9.10645C5.4331 9.09561 5.21774 8.86281 5.22852 8.58691C5.23954 8.31124 5.47231 8.0967 5.74805 8.10742C6.57837 8.13987 7.20821 8.70913 7.65918 9.08496C8.17839 9.51764 8.51585 9.75177 8.90723 9.72266C9.27764 9.69124 9.56202 9.43656 10.0117 9.01074C10.4024 8.64082 10.9599 8.09965 11.7734 8.10645L11.7959 8.10742C12.62 8.15249 13.2495 8.71772 13.7021 9.0918C14.2222 9.52146 14.5602 9.75209 14.9482 9.72266C15.3208 9.69087 15.609 9.43748 16.0576 9.0166C16.4483 8.65006 17.003 8.11329 17.8057 8.10645L17.8447 8.1084C18.6572 8.16598 19.2827 8.72319 19.7363 9.09375C20.2564 9.51857 20.6009 9.75146 20.9951 9.72363C21.4226 9.69334 21.7721 9.40099 22.3037 8.95996C22.773 8.57069 23.4154 8.04238 24.2891 8.1084ZM17.8545 4.84766C18.6669 4.90523 19.2925 5.46245 19.7461 5.83301C20.2662 6.25785 20.6107 6.49066 21.0049 6.46289C21.2802 6.44346 21.5195 6.6514 21.5391 6.92676C21.5586 7.20221 21.3506 7.44142 21.0752 7.46094C20.2265 7.52079 19.5817 6.99003 19.1133 6.60742C18.5863 6.17693 18.2252 5.88537 17.8027 5.84766C17.4601 5.85915 17.1836 6.08039 16.751 6.48633C16.3677 6.84599 15.8239 7.39359 15.042 7.45996L15.0391 7.46094C14.1852 7.52799 13.5391 6.98668 13.0742 6.60254C12.5455 6.16562 12.1866 5.87465 11.7627 5.84668C11.417 5.84876 11.143 6.06658 10.709 6.47754C10.329 6.83737 9.78554 7.39347 9.00098 7.45996C8.72606 7.48294 8.48424 7.27887 8.46094 7.00391C8.43792 6.72908 8.6422 6.48737 8.91699 6.46387C9.28727 6.43239 9.57196 6.17663 10.0215 5.75098C10.4121 5.3811 10.9698 4.84002 11.7832 4.84668L11.8057 4.84766C12.6295 4.89271 13.2583 5.45698 13.7109 5.83105C14.2307 6.26056 14.5693 6.49184 14.957 6.46289C15.3298 6.4313 15.6187 6.17781 16.0674 5.75684C16.4579 5.39041 17.0121 4.85385 17.8145 4.84668L17.8545 4.84766Z" fill="#636362"/>
</g>
</svg>
