<svg width="30" height="30" viewBox="0 0 30 30" fill="none" xmlns="http://www.w3.org/2000/svg">
<mask id="mask0_2660_12824" style="mask-type:alpha" maskUnits="userSpaceOnUse" x="0" y="0" width="30" height="30">
<rect width="30" height="30" fill="#D9D9D9"/>
</mask>
<g mask="url(#mask0_2660_12824)">
<path d="M15 1C22.7319 1.00014 28.9999 7.26809 29 15C28.9999 22.7319 22.7319 28.9999 15 29C7.26807 28.9999 1.0001 22.7319 1 15C1.00006 7.26804 7.26804 1.00006 15 1ZM15 2.5C8.09647 2.50006 2.50006 8.09647 2.5 15C2.5001 21.9035 8.0965 27.4999 15 27.5C21.9034 27.4999 27.4999 21.9034 27.5 15C27.4999 8.09652 21.9035 2.50014 15 2.5ZM19.9434 18.2217C20.2175 18.2217 20.4332 18.2995 20.5898 18.4365C20.7465 18.5834 20.8252 18.77 20.8252 18.9854C20.8252 19.1124 20.8047 19.2294 20.7559 19.3369C20.7069 19.4445 20.6388 19.5623 20.541 19.6895C20.4725 19.7678 20.3646 19.8854 20.1982 20.042C20.0318 20.1986 19.9239 20.2968 19.8848 20.3457C19.8457 20.3945 19.8067 20.4434 19.7773 20.4922H20.835V20.9824H18.9844C19.004 20.7964 19.0623 20.6196 19.1602 20.4531C19.2581 20.2867 19.4544 20.0719 19.7578 19.7979C19.9928 19.5727 20.1395 19.425 20.1982 19.3467C20.2666 19.2392 20.3056 19.1319 20.3057 19.0244C20.3057 18.9069 20.2765 18.8185 20.208 18.75C20.1493 18.6913 20.0608 18.6523 19.9434 18.6523C19.8261 18.6524 19.7481 18.6816 19.6797 18.75C19.6112 18.8185 19.5713 18.9264 19.5615 19.083L19.0332 19.0342C19.0626 18.7405 19.1607 18.5345 19.3271 18.4072C19.4935 18.2801 19.6988 18.2217 19.9434 18.2217ZM16.1445 15.1182C16.8396 15.1182 17.3984 15.3329 17.8193 15.7637C18.2403 16.1944 18.4453 16.8018 18.4453 17.5654C18.4453 18.329 18.2403 18.9267 17.8193 19.3574C17.3985 19.788 16.8501 20.0028 16.1553 20.0029C15.4602 20.0029 14.8916 19.7881 14.4805 19.3574C14.0693 18.9267 13.8545 18.3388 13.8545 17.585H13.8643C13.8643 17.1053 13.9323 16.6941 14.0791 16.3711C14.1868 16.1264 14.3335 15.9106 14.5195 15.7246C14.7055 15.5288 14.9116 15.3918 15.127 15.3037C15.4205 15.1765 15.763 15.1182 16.1445 15.1182ZM11.1816 15.0986C11.7591 15.0987 12.2287 15.2649 12.5908 15.6074C12.8062 15.813 12.9636 16.0967 13.0713 16.4785L12.1309 16.7041C12.0721 16.4593 11.9545 16.263 11.7783 16.126C11.6022 15.9793 11.3871 15.9112 11.1328 15.9111C10.7804 15.9111 10.4957 16.0384 10.2803 16.293C10.0651 16.5475 9.95801 16.9491 9.95801 17.5166C9.95803 18.1135 10.065 18.5443 10.2803 18.7891C10.4957 19.0436 10.7706 19.1709 11.123 19.1709C11.3774 19.1708 11.5924 19.0921 11.7783 18.9258C11.9602 18.7726 12.0844 18.5258 12.1631 18.1855L13.0811 18.4756C12.9342 18.9944 12.6989 19.3763 12.376 19.6211C12.053 19.8658 11.632 19.9931 11.123 19.9932C10.4965 19.9932 9.97757 19.7775 9.57617 19.3467C9.17481 18.9159 8.96876 18.329 8.96875 17.585C8.96875 16.8017 9.17477 16.1847 9.57617 15.7539C9.98732 15.3233 10.5161 15.0986 11.1816 15.0986ZM16.1553 15.9209C15.7637 15.9209 15.44 16.0579 15.2051 16.3223C14.9604 16.5964 14.8428 16.9978 14.8428 17.5459V17.5557C14.8428 18.094 14.9701 18.4954 15.2148 18.7695C15.4596 19.0437 15.7735 19.1807 16.1553 19.1807C16.5369 19.1805 16.8501 19.0435 17.0947 18.7695C17.3394 18.4954 17.457 18.0843 17.457 17.5361C17.457 16.988 17.3393 16.5866 17.1045 16.3223C16.8696 16.058 16.5467 15.921 16.1553 15.9209ZM12.1631 18.1855L12.1504 18.1816L12.1699 18.1621C12.1682 18.17 12.1649 18.1778 12.1631 18.1855ZM8.16699 9.63379C9.07551 9.63395 9.81231 10.3708 9.8125 11.2793C9.81248 12.1879 9.07561 12.9246 8.16699 12.9248C7.25824 12.9248 6.52151 12.188 6.52148 11.2793C6.52167 10.3707 7.25834 9.63379 8.16699 9.63379ZM12.7188 9.63379C13.6274 9.63381 14.3641 10.3707 14.3643 11.2793C14.3642 12.188 13.6275 12.9248 12.7188 12.9248C11.8102 12.9245 11.0733 12.1879 11.0732 11.2793C11.0734 10.3708 11.8103 9.63405 12.7188 9.63379ZM17.2812 9.63379C18.1899 9.63381 18.9266 10.3707 18.9268 11.2793C18.9267 12.188 18.19 12.9248 17.2812 12.9248C16.3726 12.9247 15.6358 12.188 15.6357 11.2793C15.6359 10.3708 16.3727 9.63392 17.2812 9.63379ZM21.834 9.63379C22.7426 9.63382 23.4793 10.3707 23.4795 11.2793C23.4795 12.188 22.7427 12.9248 21.834 12.9248C20.9252 12.9248 20.1885 12.188 20.1885 11.2793C20.1887 10.3707 20.9253 9.63379 21.834 9.63379ZM8.16699 10.6338C7.81063 10.6338 7.52167 10.923 7.52148 11.2793C7.52151 11.6358 7.81053 11.9248 8.16699 11.9248C8.52332 11.9246 8.81248 11.6357 8.8125 11.2793C8.81231 10.9231 8.52322 10.6339 8.16699 10.6338ZM12.7188 10.6338C12.3626 10.634 12.0734 10.9231 12.0732 11.2793C12.0733 11.6356 12.3625 11.9245 12.7188 11.9248C13.0752 11.9248 13.3642 11.6357 13.3643 11.2793C13.3641 10.923 13.0751 10.6338 12.7188 10.6338ZM17.2812 10.6338C16.925 10.6339 16.6359 10.9231 16.6357 11.2793C16.6358 11.6357 16.9249 11.9247 17.2812 11.9248C17.6377 11.9248 17.9267 11.6357 17.9268 11.2793C17.9266 10.923 17.6376 10.6338 17.2812 10.6338ZM21.834 10.6338C21.4776 10.6338 21.1887 10.923 21.1885 11.2793C21.1885 11.6358 21.4775 11.9248 21.834 11.9248C22.1904 11.9248 22.4795 11.6357 22.4795 11.2793C22.4793 10.923 22.1903 10.6338 21.834 10.6338ZM10.4385 5.88477C11.347 5.88503 12.084 6.62167 12.084 7.53027C12.0838 8.43872 11.3469 9.17552 10.4385 9.17578C9.52983 9.17578 8.79316 8.43888 8.79297 7.53027C8.79297 6.62151 9.52971 5.88477 10.4385 5.88477ZM15 5.88477C15.9087 5.88479 16.6455 6.62152 16.6455 7.53027C16.6453 8.43886 15.9086 9.17576 15 9.17578C14.0915 9.17562 13.3547 8.43878 13.3545 7.53027C13.3545 6.62161 14.0914 5.88493 15 5.88477ZM19.5527 5.88477C20.4615 5.88479 21.1982 6.62152 21.1982 7.53027C21.1981 8.43886 20.4614 9.17576 19.5527 9.17578C18.6441 9.17572 17.9074 8.43884 17.9072 7.53027C17.9072 6.62154 18.644 5.88482 19.5527 5.88477ZM10.4385 6.88477C10.082 6.88477 9.79297 7.17379 9.79297 7.53027C9.79316 7.88659 10.0821 8.17578 10.4385 8.17578C10.7946 8.17552 11.0838 7.88643 11.084 7.53027C11.084 7.17395 10.7947 6.88503 10.4385 6.88477ZM15 6.88477C14.6437 6.88493 14.3545 7.17389 14.3545 7.53027C14.3547 7.88649 14.6438 8.17562 15 8.17578C15.3563 8.17576 15.6453 7.88658 15.6455 7.53027C15.6455 7.17381 15.3565 6.88479 15 6.88477ZM19.5527 6.88477C19.1963 6.88482 18.9072 7.17383 18.9072 7.53027C18.9074 7.88656 19.1964 8.17572 19.5527 8.17578C19.9091 8.17576 20.1981 7.88658 20.1982 7.53027C20.1982 7.17381 19.9092 6.88479 19.5527 6.88477Z" fill="#636362"/>
</g>
</svg>
