<svg width="30" height="30" viewBox="0 0 30 30" fill="none" xmlns="http://www.w3.org/2000/svg">
<mask id="mask0_2660_12783" style="mask-type:alpha" maskUnits="userSpaceOnUse" x="0" y="0" width="30" height="30">
<rect width="30" height="30" fill="#D9D9D9"/>
</mask>
<g mask="url(#mask0_2660_12783)">
<path d="M15 1C22.732 1.00003 29 7.26803 29 15C29 22.7319 22.7319 29 15 29C7.26804 29 1.00004 22.732 1 15C1 7.26801 7.26801 1 15 1ZM15 2.5C8.09644 2.5 2.5 8.09644 2.5 15C2.50004 21.9035 8.09647 27.5 15 27.5C21.9035 27.5 27.5 21.9035 27.5 15C27.5 8.09646 21.9035 2.50003 15 2.5ZM18.25 15.3037C18.759 15.3037 19.1215 15.3426 19.3467 15.4307C19.5719 15.5188 19.7584 15.6655 19.8955 15.8809C20.0325 16.0962 20.1006 16.3509 20.1006 16.625C20.1006 16.9774 19.9927 17.2709 19.7871 17.5059C19.5816 17.7408 19.2685 17.8777 18.8477 17.9463C19.0533 18.0638 19.2194 18.2018 19.3564 18.3486C19.4935 18.4955 19.6704 18.7493 19.9053 19.1113L20.4824 20.0322H19.3369L18.6416 19.0039C18.3969 18.632 18.2307 18.4065 18.1426 18.3086C18.0545 18.2108 17.9562 18.1524 17.8584 18.1133C17.7605 18.0742 17.5941 18.0645 17.3789 18.0645H17.1836V20.042H16.2236L16.2432 20.0322V15.3037H18.25ZM13.5703 20.0322H12.5332L12.1221 18.9551H10.2324L9.84082 20.0322H8.83203L10.6729 15.3037H11.6807L13.5703 20.0322ZM15.166 20.0322H14.207V15.3037H15.166V20.0322ZM10.5156 18.1621H11.8086L11.1523 16.4102L10.5156 18.1621ZM17.2031 17.3008H17.9072C18.3674 17.3008 18.652 17.2813 18.7695 17.2422C18.8869 17.203 18.9745 17.1339 19.0332 17.0459C19.1017 16.948 19.1318 16.8304 19.1318 16.6934C19.1318 16.5368 19.092 16.4094 19.0039 16.3115C18.9158 16.2138 18.7981 16.1553 18.6416 16.126C18.563 16.1162 18.3284 16.1065 17.9473 16.1064H17.2031V17.3008ZM24.2891 10.2432C24.5644 10.264 24.7709 10.504 24.75 10.7793C24.729 11.0544 24.4891 11.2611 24.2139 11.2402C23.7955 11.2086 23.4495 11.4436 22.9424 11.8643C22.4975 12.2333 21.8819 12.7975 21.0664 12.8555C20.2176 12.9156 19.572 12.3856 19.1035 12.0029C18.5761 11.5721 18.2156 11.2798 17.793 11.2422C17.4504 11.2537 17.1748 11.475 16.7422 11.8809C16.3588 12.2406 15.8145 12.7892 15.0322 12.8555H15.0293C14.1753 12.9227 13.5294 12.3813 13.0645 11.9971C12.5343 11.559 12.1753 11.2689 11.75 11.2422C11.4057 11.2455 11.132 11.4623 10.6992 11.8721C10.3193 12.2318 9.77648 12.7888 8.99219 12.8555H8.98828C8.12813 12.9225 7.48174 12.3743 7.01855 11.9883C6.48579 11.5443 6.13153 11.2577 5.70898 11.2412C5.43322 11.2304 5.21795 10.9974 5.22852 10.7217C5.23947 10.4459 5.47226 10.2315 5.74805 10.2422C6.57844 10.2746 7.2082 10.8439 7.65918 11.2197C8.1783 11.6523 8.5159 11.8865 8.90723 11.8574C9.27757 11.826 9.56215 11.5712 10.0117 11.1455C10.4024 10.7756 10.9599 10.2344 11.7734 10.2412L11.7959 10.2422C12.6201 10.2873 13.2494 10.8525 13.7021 11.2266C14.2221 11.6561 14.5602 11.8868 14.9482 11.8574C15.3207 11.8256 15.6092 11.5721 16.0576 11.1514C16.4483 10.7848 17.003 10.2481 17.8057 10.2412L17.8447 10.2432C18.6573 10.3007 19.2827 10.858 19.7363 11.2285C20.2563 11.6533 20.6009 11.8862 20.9951 11.8584C21.4225 11.8281 21.7722 11.5356 22.3037 11.0947C22.773 10.7054 23.4154 10.1771 24.2891 10.2432ZM17.8545 6.98242C18.667 7.04 19.2924 7.59721 19.7461 7.96777C20.2662 8.39261 20.6107 8.62541 21.0049 8.59766C21.2803 8.57823 21.5195 8.78612 21.5391 9.06152C21.5583 9.3368 21.3505 9.57619 21.0752 9.5957C20.2265 9.65554 19.5817 9.12479 19.1133 8.74219C18.5861 8.31159 18.2252 8.02014 17.8027 7.98242C17.4601 7.99393 17.1836 8.21516 16.751 8.62109C16.3677 8.98076 15.8237 9.52837 15.042 9.59473L15.0391 9.5957C14.1853 9.66273 13.5391 9.12144 13.0742 8.7373C12.5453 8.30027 12.1867 8.00942 11.7627 7.98145C11.417 7.98353 11.143 8.20135 10.709 8.6123C10.329 8.97214 9.78536 9.52825 9.00098 9.59473C8.72622 9.61767 8.48444 9.41341 8.46094 9.13867C8.43787 8.86383 8.64219 8.62216 8.91699 8.59863C9.2872 8.56716 9.5721 8.31125 10.0215 7.88574C10.4121 7.51587 10.9698 6.97479 11.7832 6.98145L11.8057 6.98242C12.6296 7.02748 13.2583 7.59175 13.7109 7.96582C14.2307 8.39531 14.5693 8.62659 14.957 8.59766C15.3297 8.56607 15.6188 8.31243 16.0674 7.8916C16.4579 7.52517 17.0121 6.98861 17.8145 6.98145L17.8545 6.98242Z" fill="#636362"/>
</g>
</svg>
