<svg width="30" height="30" viewBox="0 0 30 30" fill="none" xmlns="http://www.w3.org/2000/svg">
<mask id="mask0_2660_12653" style="mask-type:alpha" maskUnits="userSpaceOnUse" x="0" y="0" width="30" height="30">
<rect width="30" height="30" fill="#D9D9D9"/>
</mask>
<g mask="url(#mask0_2660_12653)">
<path d="M15 1C22.732 1 29 7.26801 29 15C29 22.732 22.732 29 15 29C7.26801 29 1 22.732 1 15C1 7.26801 7.26801 1 15 1ZM15 2.5C8.09644 2.5 2.5 8.09644 2.5 15C2.5 21.9036 8.09644 27.5 15 27.5C21.9036 27.5 27.5 21.9036 27.5 15C27.5 8.09644 21.9036 2.5 15 2.5ZM14.9609 22.5391C15.8148 22.472 16.4609 23.0133 16.9258 23.3975C17.4537 23.8337 17.8123 24.1226 18.2354 24.1514C18.5819 24.1501 18.8562 23.9341 19.291 23.5225C19.671 23.1626 20.2145 22.6055 20.999 22.5391C21.2738 22.5161 21.5155 22.7204 21.5391 22.9951C21.5624 23.2701 21.3579 23.5116 21.083 23.5352C20.7128 23.5666 20.4279 23.8235 19.9785 24.249C19.588 24.6188 19.0307 25.1588 18.2178 25.1523C18.2103 25.1523 18.2019 25.1527 18.1943 25.1523C17.3702 25.1073 16.7418 24.542 16.2891 24.168C15.768 23.7374 15.429 23.5058 15.04 23.5361L15.0391 23.5352C14.6681 23.5681 14.3797 23.8237 13.9326 24.2432C13.5421 24.6096 12.9877 25.1452 12.1855 25.1523C12.1725 25.1525 12.1586 25.1523 12.1455 25.1514C11.333 25.0938 10.7075 24.5366 10.2539 24.166C9.73396 23.7413 9.38923 23.5084 8.99512 23.5361C8.71974 23.5555 8.48045 23.3477 8.46094 23.0723C8.44191 22.7972 8.64964 22.5586 8.9248 22.5391C9.77343 22.4792 10.4183 23.009 10.8867 23.3916C11.4118 23.8205 11.772 24.1108 12.1924 24.1504C12.5372 24.1408 12.8143 23.9215 13.249 23.5137C13.6323 23.154 14.1761 22.6054 14.958 22.5391H14.9609ZM21.0107 19.2793C21.871 19.2121 22.5172 19.7605 22.9805 20.1465C23.5133 20.5905 23.8685 20.877 24.291 20.8936C24.5666 20.9045 24.781 21.1365 24.7705 21.4121C24.7597 21.6879 24.5277 21.9032 24.252 21.8926C23.4215 21.8601 22.7918 21.2899 22.3408 20.9141C21.8202 20.4802 21.4816 20.2457 21.0889 20.2764L21.0879 20.2754C20.7197 20.3085 20.4361 20.5652 19.9883 20.9893C19.5976 21.3592 19.04 21.8993 18.2266 21.8926C18.2189 21.8925 18.2108 21.893 18.2031 21.8926C17.3791 21.8474 16.7505 21.2822 16.2979 20.9082C15.7766 20.4775 15.438 20.2457 15.0488 20.2764L15.0479 20.2754C14.677 20.3085 14.3895 20.5639 13.9424 20.9834C13.5517 21.3499 12.997 21.8857 12.1943 21.8926C12.1812 21.8927 12.1674 21.8925 12.1543 21.8916C11.3421 21.8338 10.7172 21.2767 10.2637 20.9062C9.74345 20.4813 9.39825 20.2484 9.00391 20.2764C8.57672 20.3069 8.22763 20.5992 7.69629 21.04C7.22698 21.4294 6.58377 21.9578 5.70996 21.8916C5.43494 21.8705 5.22833 21.6305 5.24902 21.3555C5.26988 21.0802 5.51086 20.8738 5.78613 20.8945C6.20435 20.9261 6.55063 20.6911 7.05762 20.2705C7.50251 19.9014 8.11787 19.3372 8.93359 19.2793C9.78235 19.2191 10.427 19.7492 10.8955 20.1318C11.4209 20.561 11.7815 20.8512 12.2021 20.8906C12.5469 20.881 12.8233 20.6616 13.2578 20.2539C13.6412 19.8942 14.1854 19.3457 14.9678 19.2793H14.9707C15.8245 19.2122 16.4697 19.7535 16.9346 20.1377C17.4624 20.5739 17.8213 20.8626 18.2441 20.8916C18.591 20.8906 18.8649 20.6745 19.2998 20.2627C19.6798 19.9029 20.2232 19.3459 21.0078 19.2793H21.0107ZM12.3857 13.4922C12.7774 13.4922 13.0815 13.5213 13.2871 13.5801C13.5609 13.6584 13.8053 13.8055 14.001 14.0205C14.1967 14.226 14.3542 14.4808 14.4521 14.7842C14.55 15.0876 14.6084 15.46 14.6084 15.9004C14.6084 16.292 14.5598 16.6253 14.4619 16.9092C14.3444 17.2518 14.1773 17.5356 13.9521 17.7412C13.7858 17.9075 13.561 18.0252 13.2871 18.123C13.0717 18.1916 12.7968 18.2207 12.4443 18.2207H10.6436V13.4922H12.3857ZM17.3105 15.0098L18.2402 13.4922H19.3467L17.8779 15.793L19.4941 18.2207H18.3389L17.291 16.5859L16.2432 18.2207H15.0977L16.7129 15.7539L15.2451 13.4922H16.3613L17.3105 15.0098ZM11.6025 14.2949V17.4277H12.3174C12.5817 17.4277 12.778 17.4181 12.8955 17.3789C13.052 17.3397 13.1795 17.2716 13.2773 17.1836C13.3752 17.0955 13.4628 16.938 13.5215 16.7227C13.5899 16.5073 13.6191 16.2234 13.6191 15.8613C13.6191 15.4992 13.59 15.2153 13.5215 15.0195C13.453 14.824 13.3653 14.6672 13.248 14.5596C13.1306 14.4519 12.9829 14.3731 12.8066 14.334C12.6695 14.3047 12.4147 14.2852 12.0234 14.2852H11.5928L11.6025 14.2949ZM8.32031 9.08984C9.24246 9.09001 9.99019 9.83759 9.99023 10.7598C9.9902 11.682 9.24247 12.4295 8.32031 12.4297C7.39805 12.4296 6.65042 11.682 6.65039 10.7598C6.65043 9.83751 7.39806 9.08989 8.32031 9.08984ZM12.9697 9.08984C13.892 9.08984 14.6396 9.83749 14.6396 10.7598C14.6396 11.6821 13.892 12.4297 12.9697 12.4297C12.0476 12.4294 11.2998 11.6819 11.2998 10.7598C11.2998 9.83763 12.0476 9.09008 12.9697 9.08984ZM17.6299 9.08984C18.5522 9.08984 19.2998 9.83749 19.2998 10.7598C19.2998 11.6821 18.5522 12.4297 17.6299 12.4297C16.7077 12.4296 15.96 11.682 15.96 10.7598C15.96 9.83755 16.7077 9.08995 17.6299 9.08984ZM22.2803 9.08984C23.2024 9.08998 23.9502 9.83757 23.9502 10.7598C23.9502 11.682 23.2025 12.4296 22.2803 12.4297C21.358 12.4296 20.6104 11.682 20.6104 10.7598C20.6104 9.83751 21.358 9.08989 22.2803 9.08984ZM8.32031 10.0898C7.95034 10.0899 7.65043 10.3898 7.65039 10.7598C7.65042 11.1297 7.95034 11.4296 8.32031 11.4297C8.69018 11.4295 8.9902 11.1297 8.99023 10.7598C8.99019 10.3899 8.69018 10.09 8.32031 10.0898ZM12.9697 10.0898C12.5999 10.0901 12.2998 10.3899 12.2998 10.7598C12.2998 11.1296 12.5999 11.4294 12.9697 11.4297C13.3398 11.4297 13.6396 11.1298 13.6396 10.7598C13.6396 10.3898 13.3397 10.0898 12.9697 10.0898ZM17.6299 10.0898C17.26 10.09 16.96 10.3898 16.96 10.7598C16.96 11.1297 17.2599 11.4296 17.6299 11.4297C17.9999 11.4297 18.2998 11.1298 18.2998 10.7598C18.2998 10.3898 17.9999 10.0898 17.6299 10.0898ZM22.2803 10.0898C21.9103 10.0899 21.6104 10.3898 21.6104 10.7598C21.6104 11.1298 21.9103 11.4296 22.2803 11.4297C22.6502 11.4296 22.9502 11.1297 22.9502 10.7598C22.9502 10.3899 22.6502 10.09 22.2803 10.0898ZM10.6396 5.25977C11.5619 5.25977 12.3095 6.00741 12.3096 6.92969C12.3096 7.852 11.562 8.59961 10.6396 8.59961C9.71751 8.5994 8.96973 7.85188 8.96973 6.92969C8.96977 6.00753 9.71754 5.25997 10.6396 5.25977ZM15.2998 5.25977C16.2221 5.25977 16.9697 6.00741 16.9697 6.92969C16.9697 7.85198 16.2221 8.59961 15.2998 8.59961C14.3777 8.59944 13.6299 7.85187 13.6299 6.92969C13.6299 6.00751 14.3777 5.25994 15.2998 5.25977ZM19.9502 5.25977C20.8724 5.2599 21.6201 6.00749 21.6201 6.92969C21.6201 7.8519 20.8724 8.59948 19.9502 8.59961C19.0279 8.59957 18.2803 7.85196 18.2803 6.92969C18.2803 6.00743 19.0279 5.25981 19.9502 5.25977ZM10.6396 6.25977C10.2698 6.25997 9.96977 6.55982 9.96973 6.92969C9.96973 7.29959 10.2698 7.5994 10.6396 7.59961C11.0097 7.59961 11.3096 7.29972 11.3096 6.92969C11.3095 6.55969 11.0097 6.25977 10.6396 6.25977ZM15.2998 6.25977C14.9299 6.25994 14.6299 6.5598 14.6299 6.92969C14.6299 7.29959 14.9299 7.59944 15.2998 7.59961C15.6698 7.59961 15.9697 7.2997 15.9697 6.92969C15.9697 6.55969 15.6698 6.25977 15.2998 6.25977ZM19.9502 6.25977C19.5802 6.25981 19.2803 6.55972 19.2803 6.92969C19.2803 7.29967 19.5802 7.59957 19.9502 7.59961C20.3201 7.59948 20.6201 7.29962 20.6201 6.92969C20.6201 6.55977 20.3201 6.2599 19.9502 6.25977Z" fill="#636362"/>
</g>
</svg>
