<svg width="165" height="21" viewBox="0 0 165 21" fill="none" xmlns="http://www.w3.org/2000/svg">
<g clip-path="url(#clip0_4286_11952)">
<path d="M1.38558 4.13665C0.620453 4.13665 0 4.75575 0 5.51955V15.4728C0 16.2366 0.620453 16.8557 1.38558 16.8557C2.15071 16.8557 2.77116 16.2366 2.77116 15.4728V5.51955C2.76967 4.75575 2.15071 4.13665 1.38558 4.13665Z" fill="url(#paint0_linear_4286_11952)"/>
<path d="M7.68406 8.26606C6.91893 8.26606 6.29848 8.88515 6.29848 9.64895V15.4744C6.29848 16.2382 6.91893 16.8573 7.68406 16.8573C8.44918 16.8573 9.06964 16.2382 9.06964 15.4744V9.64895C9.06964 8.88366 8.44918 8.26606 7.68406 8.26606Z" fill="url(#paint1_linear_4286_11952)"/>
<path d="M13.9841 4.13665C13.219 4.13665 12.5985 4.75575 12.5985 5.51955V15.4698C12.5985 16.2336 13.219 16.8527 13.9841 16.8527C14.7492 16.8527 15.3697 16.2336 15.3697 15.4698V5.51955C15.3697 4.75575 14.7492 4.13665 13.9841 4.13665Z" fill="url(#paint2_linear_4286_11952)"/>
<path d="M26.5841 8.26606C25.8189 8.26606 25.1985 8.88515 25.1985 9.64895V15.4819C25.1985 16.2457 25.8189 16.8648 26.5841 16.8648C27.3492 16.8648 27.9696 16.2457 27.9696 15.4819V9.64895C27.9696 8.88366 27.3492 8.26606 26.5841 8.26606Z" fill="url(#paint3_linear_4286_11952)"/>
<path d="M32.8825 4.13521C32.1174 4.13521 31.497 4.7543 31.497 5.5181V11.6777C31.497 12.4415 32.1174 13.0606 32.8825 13.0606C33.6477 13.0606 34.2681 12.4415 34.2681 11.6777V5.5181C34.2681 4.7543 33.6492 4.13521 32.8825 4.13521Z" fill="url(#paint4_linear_4286_11952)"/>
<path d="M20.284 4.13521C19.5189 4.13521 18.8985 4.7543 18.8985 5.5181V11.6777C18.8985 12.4415 19.5189 13.0606 20.284 13.0606C21.0492 13.0606 21.6696 12.4415 21.6696 11.6777V8.59792V5.5181C21.6696 4.7543 21.0492 4.13521 20.284 4.13521Z" fill="url(#paint5_linear_4286_11952)"/>
<path d="M146.914 8.96422C146.971 8.45253 147.019 6.49081 149.447 6.49081C151.778 6.49081 151.808 8.44059 151.859 8.96422H146.914ZM146.908 11.2884H155.499C155.532 11.0244 155.569 10.4665 155.569 10.095C155.569 6.86078 154.078 3.86077 149.399 3.86077C144.995 3.86077 143.068 6.65342 143.068 10.0264C143.068 13.2129 144.722 16.5754 149.399 16.5754C153.574 16.5754 155.134 14.6912 155.522 12.6922H151.692C151.651 12.7817 151.234 13.9006 149.49 13.9006C147.498 13.8991 146.908 12.0448 146.908 11.2884ZM133.279 16.2024V10.3978C133.279 8.11836 134.197 7.09499 135.779 7.09499C137.154 7.09499 137.773 7.93338 137.773 9.46844V16.2039H141.718V8.79266C141.718 5.74491 140.412 3.86077 137.408 3.86077C135.366 3.86077 134.036 4.86177 133.279 6.39683V4.23372H129.333V16.2024H133.279ZM124.586 13.0413V7.23373H127.706V4.23522H124.586V1.42019H122.591L120.963 4.32621L118.624 5.37346V7.23373H120.641V11.6211C120.641 14.6226 121.743 16.2039 125.251 16.2039H127.337V13.0413H124.586ZM109.334 16.2024V10.3978C109.334 8.11836 110.251 7.09499 111.833 7.09499C113.212 7.09499 113.831 7.93338 113.831 9.46844V16.2039H117.775V8.79266C117.775 5.74491 116.469 3.86077 113.465 3.86077C111.423 3.86077 110.093 4.86177 109.335 6.39683V4.23372H105.39V16.2024H109.334ZM103.347 4.23522H99.402V10.0383C99.402 12.273 98.4847 13.3412 96.947 13.3412C95.5465 13.3412 94.9306 12.5028 94.9306 10.9453V4.23522H90.8618L90.9841 11.645C90.9841 14.6912 92.3369 16.5754 95.3437 16.5754C97.3602 16.5754 98.6682 15.5982 99.402 14.0871V16.2024H103.347V4.23522ZM97.9806 2.81353H101.33V0.395327H97.9806V2.81353ZM93.0051 2.81353H96.3549V0.395327H93.0051V2.81353ZM73.0074 8.31081C73.0074 12.7071 75.2312 16.5754 80.2067 16.5754C83.5566 16.5754 84.9556 15.0179 85.5537 13.3665V16.2039H88.9244V7.7111H81.1374V10.2949H85.0943C84.8422 12.0388 83.925 13.4098 81.1732 13.4098C78.4453 13.4098 77.2283 11.5898 77.2283 8.30932C77.2283 4.82 78.6466 3.16261 81.3775 3.16261C83.5566 3.16261 84.6304 4.16212 84.8154 5.5107H88.8513C88.6455 2.48683 86.6305 0 81.3552 0C75.4131 0.0014918 73.0074 3.82199 73.0074 8.31081ZM165 7.93189V4.04874H164.035C162.18 4.04874 161.237 4.95426 160.779 6.60568V4.23522H156.949V16.2039H160.894V11.2109C160.894 8.86277 161.698 7.93189 163.599 7.93189H165Z" fill="#2666E0"/>
<path d="M54 3.83686C51.7911 3.83686 50.4936 4.89156 49.7493 6.5221C49.1482 4.79609 47.8283 3.83686 45.7865 3.83686C43.7208 3.83686 42.4485 4.77222 41.7043 6.25805V4.22025H37.5729V16.2069H41.7043V10.5723C41.7043 8.22275 42.4724 7.16805 44.0817 7.16805C45.4509 7.16805 46.0505 8.00644 46.0505 9.5415V16.2054H50.1088V10.5723C50.1088 8.22275 50.853 7.16805 52.4862 7.16805C53.8553 7.16805 54.4549 8.00644 54.4549 9.5415V16.2054H58.5863V8.91793C58.5878 5.77769 57.147 3.83686 54 3.83686ZM66.1973 11.172L65.5724 13.4023L64.8758 11.172L62.5462 4.22025H58.3432L62.2344 15.8712H64.852L64.227 17.7404H59.0636V21H62.5223C66.2927 21 67.5426 19.3456 68.5031 16.2292L72.3213 4.21876H68.4062L66.1973 11.172Z" fill="#2666E0"/>
</g>
<defs>
<linearGradient id="paint0_linear_4286_11952" x1="35.0321" y1="10.5553" x2="-6.00458e-07" y2="10.5553" gradientUnits="userSpaceOnUse">
<stop stop-color="#39EDB5"/>
<stop offset="0.5" stop-color="#00E2FF"/>
<stop offset="1" stop-color="#268FF3"/>
</linearGradient>
<linearGradient id="paint1_linear_4286_11952" x1="35.0321" y1="10.5553" x2="-6.00458e-07" y2="10.5553" gradientUnits="userSpaceOnUse">
<stop stop-color="#39EDB5"/>
<stop offset="0.5" stop-color="#00E2FF"/>
<stop offset="1" stop-color="#268FF3"/>
</linearGradient>
<linearGradient id="paint2_linear_4286_11952" x1="35.0321" y1="10.5553" x2="-6.00458e-07" y2="10.5553" gradientUnits="userSpaceOnUse">
<stop stop-color="#39EDB5"/>
<stop offset="0.5" stop-color="#00E2FF"/>
<stop offset="1" stop-color="#268FF3"/>
</linearGradient>
<linearGradient id="paint3_linear_4286_11952" x1="35.0321" y1="10.5553" x2="-6.00458e-07" y2="10.5553" gradientUnits="userSpaceOnUse">
<stop stop-color="#39EDB5"/>
<stop offset="0.5" stop-color="#00E2FF"/>
<stop offset="1" stop-color="#268FF3"/>
</linearGradient>
<linearGradient id="paint4_linear_4286_11952" x1="35.0321" y1="10.5553" x2="-6.00458e-07" y2="10.5553" gradientUnits="userSpaceOnUse">
<stop stop-color="#39EDB5"/>
<stop offset="0.5" stop-color="#00E2FF"/>
<stop offset="1" stop-color="#268FF3"/>
</linearGradient>
<linearGradient id="paint5_linear_4286_11952" x1="35.0321" y1="10.5553" x2="-6.00458e-07" y2="10.5553" gradientUnits="userSpaceOnUse">
<stop stop-color="#39EDB5"/>
<stop offset="0.5" stop-color="#00E2FF"/>
<stop offset="1" stop-color="#268FF3"/>
</linearGradient>
<clipPath id="clip0_4286_11952">
<rect width="165" height="21" fill="white"/>
</clipPath>
</defs>
</svg>
