<svg width="150" height="20" viewBox="0 0 150 20" fill="none" xmlns="http://www.w3.org/2000/svg">
<g clip-path="url(#clip0_7_31)">
<path d="M1.25779 3.75431C0.563228 3.75431 0 4.31618 0 5.00939V14.0427C0 14.7359 0.563228 15.2978 1.25779 15.2978C1.95234 15.2978 2.51557 14.7359 2.51557 14.0427V5.00939C2.51422 4.31618 1.95234 3.75431 1.25779 3.75431Z" fill="url(#paint0_linear_7_31)"/>
<path d="M6.97534 7.50204C6.28079 7.50204 5.71756 8.06391 5.71756 8.75711V14.0441C5.71756 14.7373 6.28079 15.2992 6.97534 15.2992C7.6699 15.2992 8.23313 14.7373 8.23313 14.0441V8.75711C8.23313 8.06256 7.6699 7.50204 6.97534 7.50204Z" fill="url(#paint1_linear_7_31)"/>
<path d="M12.6943 3.75431C11.9998 3.75431 11.4365 4.31618 11.4365 5.00939V14.04C11.4365 14.7332 11.9998 15.2951 12.6943 15.2951C13.3889 15.2951 13.9521 14.7332 13.9521 14.04V5.00939C13.9521 4.31618 13.3889 3.75431 12.6943 3.75431Z" fill="url(#paint2_linear_7_31)"/>
<path d="M24.1322 7.50204C23.4376 7.50204 22.8744 8.06391 22.8744 8.75711V14.0509C22.8744 14.7441 23.4376 15.306 24.1322 15.306C24.8267 15.306 25.39 14.7441 25.39 14.0509V8.75711C25.39 8.06256 24.8267 7.50204 24.1322 7.50204Z" fill="url(#paint3_linear_7_31)"/>
<path d="M29.8497 3.753C29.1552 3.753 28.5919 4.31487 28.5919 5.00808V10.5984C28.5919 11.2916 29.1552 11.8535 29.8497 11.8535C30.5443 11.8535 31.1075 11.2916 31.1075 10.5984V5.00808C31.1075 4.31487 30.5456 3.753 29.8497 3.753Z" fill="url(#paint4_linear_7_31)"/>
<path d="M18.4132 3.753C17.7187 3.753 17.1554 4.31487 17.1554 5.00808V10.5984C17.1554 11.2916 17.7187 11.8535 18.4132 11.8535C19.1078 11.8535 19.671 11.2916 19.671 10.5984V5.00808C19.671 4.31487 19.1078 3.753 18.4132 3.753Z" fill="url(#paint5_linear_7_31)"/>
</g>
<path d="M133.364 8.13566C133.416 7.67127 133.459 5.89087 135.663 5.89087C137.779 5.89087 137.806 7.66044 137.852 8.13566H133.364ZM133.359 10.2451H141.157C141.187 10.0054 141.221 9.49905 141.221 9.16193C141.221 6.22664 139.867 3.50393 135.62 3.50393C131.622 3.50393 129.873 6.03845 129.873 9.09965C129.873 11.9916 131.374 15.0433 135.62 15.0433C139.409 15.0433 140.826 13.3333 141.178 11.5191H137.701C137.664 11.6003 137.285 12.6158 135.702 12.6158C133.894 12.6144 133.359 10.9315 133.359 10.2451ZM120.987 14.7048V9.43677C120.987 7.36799 121.819 6.43921 123.256 6.43921C124.504 6.43921 125.066 7.20011 125.066 8.59328V14.7062H128.647V7.97996C128.647 5.21392 127.461 3.50393 124.734 3.50393C122.881 3.50393 121.673 4.4124 120.987 5.80558V3.8424H117.404V14.7048H120.987ZM113.095 11.8359V6.56512H115.927V3.84376H113.095V1.28893H111.285L109.806 3.92635L107.683 4.87679V6.56512H109.514V10.547C109.514 13.2711 110.514 14.7062 113.699 14.7062H115.593V11.8359H113.095ZM99.2497 14.7048V9.43677C99.2497 7.36799 100.082 6.43921 101.519 6.43921C102.77 6.43921 103.332 7.20011 103.332 8.59328V14.7062H106.913V7.97996C106.913 5.21392 105.727 3.50393 103 3.50393C101.147 3.50393 99.9389 4.4124 99.2511 5.80558V3.8424H95.67V14.7048H99.2497ZM93.8151 3.84376H90.234V9.11048C90.234 11.1386 89.4013 12.108 88.0055 12.108C86.7341 12.108 86.175 11.3471 86.175 9.93366V3.84376H82.4815L82.5925 10.5686C82.5925 13.3333 83.8205 15.0433 86.55 15.0433C88.3805 15.0433 89.5679 14.1565 90.234 12.785V14.7048H93.8151V3.84376ZM88.9437 2.55348H91.9846V0.358787H88.9437V2.55348ZM84.4271 2.55348H87.468V0.358787H84.4271V2.55348ZM66.2738 7.54265C66.2738 11.5326 68.2925 15.0433 72.8091 15.0433C75.85 15.0433 77.12 13.6298 77.6629 12.1311V14.7062H80.7228V6.99837H73.654V9.34335H77.2459C77.0171 10.9261 76.1845 12.1703 73.6865 12.1703C71.2102 12.1703 70.1054 10.5185 70.1054 7.54129C70.1054 4.37449 71.393 2.8703 73.872 2.8703C75.85 2.8703 76.8248 3.77742 76.9927 5.00135H80.6564C80.4696 2.25697 78.6404 0 73.8517 0C68.4577 0.00135391 66.2738 3.46872 66.2738 7.54265ZM149.782 7.19875V3.67452H148.906C147.222 3.67452 146.366 4.49634 145.95 5.99513V3.84376H142.473V14.7062H146.054V10.1747C146.054 8.0436 146.784 7.19875 148.51 7.19875H149.782Z" fill="#0764E8"/>
<path d="M49.0195 3.48222C47.0144 3.48222 45.8365 4.43944 45.1609 5.91927C44.6152 4.35279 43.417 3.48222 41.5635 3.48222C39.6883 3.48222 38.5335 4.33113 37.8578 5.67962V3.83018H34.1075V14.7089H37.8578V9.59514C37.8578 7.46273 38.5551 6.50551 40.016 6.50551C41.2589 6.50551 41.8032 7.26641 41.8032 8.65959V14.7075H45.4871V9.59514C45.4871 7.46273 46.1628 6.50551 47.6453 6.50551C48.8882 6.50551 49.4325 7.26641 49.4325 8.65959V14.7075H53.1828V8.09365C53.1841 5.24366 51.8763 3.48222 49.0195 3.48222ZM60.0918 10.1394L59.5245 12.1635L58.8922 10.1394L56.7774 3.83018H52.9621L56.4945 14.4042H58.8706L58.3033 16.1007H53.616V19.059H56.7558C60.1785 19.059 61.313 17.5575 62.185 14.7292L65.651 3.82882H62.097L60.0918 10.1394Z" fill="#0764E8"/>
<defs>
<linearGradient id="paint0_linear_7_31" x1="-0.000568643" y1="9.52612" x2="44.9293" y2="9.52612" gradientUnits="userSpaceOnUse">
<stop stop-color="#008EFB"/>
<stop offset="0.383" stop-color="#00E5FF"/>
<stop offset="0.989" stop-color="#00F1B0"/>
<stop offset="1" stop-color="#00F1B0"/>
</linearGradient>
<linearGradient id="paint1_linear_7_31" x1="-2.76476" y1="11.3998" x2="42.1651" y2="11.3998" gradientUnits="userSpaceOnUse">
<stop stop-color="#008EFB"/>
<stop offset="0.383" stop-color="#00E5FF"/>
<stop offset="0.989" stop-color="#00F1B0"/>
<stop offset="1" stop-color="#00F1B0"/>
</linearGradient>
<linearGradient id="paint2_linear_7_31" x1="-5.52924" y1="9.52485" x2="39.4006" y2="9.52485" gradientUnits="userSpaceOnUse">
<stop stop-color="#008EFB"/>
<stop offset="0.383" stop-color="#00E5FF"/>
<stop offset="0.989" stop-color="#00F1B0"/>
<stop offset="1" stop-color="#00F1B0"/>
</linearGradient>
<linearGradient id="paint3_linear_7_31" x1="-11.0574" y1="11.4034" x2="33.8725" y2="11.4034" gradientUnits="userSpaceOnUse">
<stop stop-color="#008EFB"/>
<stop offset="0.383" stop-color="#00E5FF"/>
<stop offset="0.989" stop-color="#00F1B0"/>
<stop offset="1" stop-color="#00F1B0"/>
</linearGradient>
<linearGradient id="paint4_linear_7_31" x1="-13.8219" y1="7.80293" x2="31.1079" y2="7.80293" gradientUnits="userSpaceOnUse">
<stop stop-color="#008EFB"/>
<stop offset="0.383" stop-color="#00E5FF"/>
<stop offset="0.989" stop-color="#00F1B0"/>
<stop offset="1" stop-color="#00F1B0"/>
</linearGradient>
<linearGradient id="paint5_linear_7_31" x1="-8.29336" y1="7.80293" x2="36.6365" y2="7.80293" gradientUnits="userSpaceOnUse">
<stop stop-color="#008EFB"/>
<stop offset="0.383" stop-color="#00E5FF"/>
<stop offset="0.989" stop-color="#00F1B0"/>
<stop offset="1" stop-color="#00F1B0"/>
</linearGradient>
<clipPath id="clip0_7_31">
<rect width="31.1075" height="11.553" fill="white" transform="translate(0 3.753)"/>
</clipPath>
</defs>
</svg>
